# xmcd
#
# Track frame offsets:
#  150
#  19200
#  32139
#  38207
#  57531
#  81598
#  86914
#  90149
#  95428
#  106071
#  112100
#  116301
#  121486
#  134482
#  143859
#  157443
#  167439
#  178239
#  183884
#  194274
#  198446
#  204475
#  212387
#  226684
#  238767
#  255489
#  269051
#  277180
#  287010
#  306244
#
# Disc length: 4202 seconds
#
# Revision: 0
# Processed by: cddbd v1.4PL0 Copyright (c) Steve Scherf et al.
# Submitted via: AltoMP3_Maker 3.0
#
DISCID=bc10681e
DTITLE=Umetnici - Film "Zona Zamfirova"
DYEAR=1900
DGENRE=
TTITLE0=Zona Zamfirova
TTITLE1=Pobegulja
TTITLE2=Stanka mi bolna
TTITLE3=Zona(instrumental)
TTITLE4=Nane(instrumental)
TTITLE5=Stepenice(instrumental)
TTITLE6=Premenjuvanje
TTITLE7=Pogledi
TTITLE8=Zonina senja
TTITLE9=Kradja Mlade
TTITLE10=Ukor
TTITLE11=Crkva
TTITLE12=Udvaranje
TTITLE13=Duj,Duj(kolo)
TTITLE14=Slavuj pile(kolo)
TTITLE15=Svrljiska Rumenka
TTITLE16=Fatise(kolo)
TTITLE17=Sareno oro
TTITLE18=Moja je Lena
TTITLE19=Leskovacki cocek
TTITLE20=Jelke Tamnicarke
TTITLE21=Kaleino Oro
TTITLE22=Kad mlada daje
TTITLE23=Srdjan cocek
TTITLE24=Petlovi 1
TTITLE25=Petlovi 2
TTITLE26=Voda studena
TTITLE27=Puce puska
TTITLE28=Ne goni konja
TTITLE29=Intro
EXTD=
EXTT0=
EXTT1=
EXTT2=
EXTT3=
EXTT4=
EXTT5=
EXTT6=
EXTT7=
EXTT8=
EXTT9=
EXTT10=
EXTT11=
EXTT12=
EXTT13=
EXTT14=
EXTT15=
EXTT16=
EXTT17=
EXTT18=
EXTT19=
EXTT20=
EXTT21=
EXTT22=
EXTT23=
EXTT24=
EXTT25=
EXTT26=
EXTT27=
EXTT28=
EXTT29=
PLAYORDER=
